<svg width="24" height="24" viewBox="0 0 24 24" fill="none" xmlns="http://www.w3.org/2000/svg">
    <path fill-rule="evenodd" clip-rule="evenodd"
          d="M4.5875 21.4125C4.97917 21.8042 5.45 22 6 22H18C18.55 22 19.0208 21.8042 19.4125 21.4125C19.8042 21.0208 20 20.55 20 20V8L14 2H6C5.45 2 4.97917 2.19583 4.5875 2.5875C4.19583 2.97917 4 3.45 4 4V20C4 20.55 4.19583 21.0208 4.5875 21.4125ZM13 4V9H18V20H6V4H13ZM10.1025 15V14.4287H8.5498V11.4453H7.81738V15H8.31299H8.5498H10.1025ZM11.2549 12.9639V12.019H12.8418V11.4453H11.2549H11.0547H10.5225V15H11.2549V13.5352H12.6709V12.9639H11.2549ZM15.0879 13.8989C15.1074 13.9494 15.1172 14.0063 15.1172 14.0698C15.1172 14.1496 15.0968 14.2212 15.0562 14.2847C15.0171 14.3481 14.9561 14.3978 14.873 14.4336C14.7917 14.4694 14.6875 14.4873 14.5605 14.4873C14.4564 14.4873 14.3604 14.4767 14.2725 14.4556C14.1862 14.4344 14.1113 14.4002 14.0479 14.353C13.986 14.3058 13.938 14.244 13.9038 14.1675C13.8696 14.091 13.8525 13.9974 13.8525 13.8867H13.1177C13.1177 14.0869 13.1592 14.2603 13.2422 14.4067C13.3252 14.5532 13.4359 14.6737 13.5742 14.7681C13.7142 14.8625 13.8696 14.9333 14.0405 14.9805C14.2114 15.026 14.3848 15.0488 14.5605 15.0488C14.7559 15.0488 14.9325 15.0269 15.0903 14.9829C15.2482 14.939 15.3841 14.8747 15.498 14.79C15.612 14.7054 15.6991 14.6021 15.7593 14.48C15.8195 14.3579 15.8496 14.2196 15.8496 14.0649C15.8496 13.9185 15.8244 13.7874 15.7739 13.6719C15.7235 13.5563 15.6486 13.453 15.5493 13.3618C15.45 13.2707 15.3263 13.1885 15.1782 13.1152C15.0317 13.042 14.8617 12.9761 14.668 12.9175C14.5524 12.8817 14.4507 12.8451 14.3628 12.8076C14.2749 12.7702 14.2008 12.7303 14.1406 12.688C14.0804 12.6457 14.0348 12.6001 14.0039 12.5513C13.9746 12.5024 13.96 12.4479 13.96 12.3877C13.96 12.3079 13.9811 12.2363 14.0234 12.1729C14.0658 12.1077 14.1292 12.0565 14.2139 12.019C14.2985 11.98 14.4043 11.9604 14.5312 11.9604C14.6631 11.9604 14.7721 11.9832 14.8584 12.0288C14.9463 12.0744 15.0114 12.137 15.0537 12.2168C15.0977 12.2949 15.1196 12.3861 15.1196 12.4902H15.8472C15.8472 12.2786 15.7926 12.0907 15.6836 11.9263C15.5762 11.7619 15.4248 11.6325 15.2295 11.5381C15.0342 11.4437 14.8055 11.3965 14.5435 11.3965C14.3514 11.3965 14.1748 11.4201 14.0137 11.4673C13.8542 11.5145 13.7158 11.582 13.5986 11.6699C13.4814 11.7562 13.3903 11.8604 13.3252 11.9824C13.2601 12.1029 13.2275 12.2371 13.2275 12.3853C13.2275 12.5382 13.2585 12.6725 13.3203 12.7881C13.3838 12.9036 13.4701 13.0054 13.5791 13.0933C13.6898 13.1795 13.8167 13.2552 13.96 13.3203C14.1048 13.3854 14.2578 13.444 14.4189 13.4961C14.5638 13.5417 14.6818 13.5856 14.7729 13.6279C14.8641 13.6702 14.9349 13.7134 14.9854 13.7573C15.0358 13.7996 15.07 13.8468 15.0879 13.8989Z"
          fill="#5F6368"/>
</svg>
