<svg width="480" height="480" viewBox="0 0 480 480" fill="none" xmlns="http://www.w3.org/2000/svg">
    <rect width="480" height="480" rx="55" fill="white"/>
    <path d="M258.281 263.125C250.688 272.219 239.953 279.297 226.078 284.359C212.203 289.328 196.828 291.812 179.953 291.812C162.234 291.812 146.672 287.969 133.266 280.281C119.953 272.5 109.641 261.25 102.328 246.531C95.1094 231.812 91.4062 214.516 91.2188 194.641V180.719C91.2188 160.281 94.6406 142.609 101.484 127.703C108.422 112.703 118.359 101.266 131.297 93.3906C144.328 85.4219 159.562 81.4375 177 81.4375C201.281 81.4375 220.266 87.25 233.953 98.875C247.641 110.406 255.75 127.234 258.281 149.359H217.219C215.344 137.641 211.172 129.062 204.703 123.625C198.328 118.187 189.516 115.469 178.266 115.469C163.922 115.469 153 120.859 145.5 131.641C138 142.422 134.203 158.453 134.109 179.734V192.812C134.109 214.281 138.188 230.5 146.344 241.469C154.5 252.438 166.453 257.922 182.203 257.922C198.047 257.922 209.344 254.547 216.094 247.797V212.5H177.703V181.422H258.281V263.125Z"
          fill="#0194FF"/>
    <path d="M382.781 386.2H340.594L258.469 251.481V386.2H216.281V181.45H258.469L340.734 316.45V181.45H382.781V386.2Z"
          fill="#0194FF"/>
</svg>
