<svg width="512" height="512" viewBox="0 0 512 512" fill="none" xmlns="http://www.w3.org/2000/svg">
<g clip-path="url(#clip0_513_2)">
<rect width="512" height="512" rx="121" fill="#D3EFFF"/>
<path d="M277 0H235V512H277V0Z" fill="#4898F7"/>
<path d="M353.999 265.001L404.012 241.846C439.369 225.477 461.999 190.062 461.999 151.1L461.999 -3.99901" stroke="#FF8888" stroke-width="42"/>
<path d="M158 265L107.987 241.845C72.6301 225.476 50 190.061 50 151.099L50 -3.99999" stroke="#FF8888" stroke-width="42"/>
<path d="M255.914 363.828C315.513 363.828 363.828 315.513 363.828 255.914C363.828 196.315 315.513 148 255.914 148C196.315 148 148 196.315 148 255.914C148 315.513 196.315 363.828 255.914 363.828Z" fill="white" stroke="#2775D1" stroke-width="24"/>
</g>
<defs>
<clipPath id="clip0_513_2">
<rect width="512" height="512" rx="121" fill="white"/>
</clipPath>
</defs>
</svg>
